HIERARCHY
ROOT Hips
{
	OFFSET 0.00000 0.00000 0.00000
	CHANNELS 6 Xposition Yposition Zposition Zrotation Yrotation Xrotation 
	JOINT LHipJoint
	{
		OFFSET 0 0 0
		CHANNELS 3 Zrotation Yrotation Xrotation
		JOINT LeftUpLeg
		{
			OFFSET 1.58895 -1.83665 0.71753
			CHANNELS 3 Zrotation Yrotation Xrotation
			JOINT LeftLeg
			{
				OFFSET 2.50528 -6.88321 0.00000
				CHANNELS 3 Zrotation Yrotation Xrotation
				JOINT LeftFoot
				{
					OFFSET 2.63244 -7.23257 0.00000
					CHANNELS 3 Zrotation Yrotation Xrotation
					JOINT LeftToeBase
					{
						OFFSET 0.23691 -0.65090 1.72750
						CHANNELS 3 Zrotation Yrotation Xrotation
						End Site
						{
							OFFSET 0.00000 -0.00000 0.92561
						}
					}
				}
			}
		}
	}
	JOINT RHipJoint
	{
		OFFSET 0 0 0
		CHANNELS 3 Zrotation Yrotation Xrotation
		JOINT RightUpLeg
		{
			OFFSET -1.51435 -1.83665 0.71753
			CHANNELS 3 Zrotation Yrotation Xrotation
			JOINT RightLeg
			{
				OFFSET -2.54551 -6.99375 0.00000
				CHANNELS 3 Zrotation Yrotation Xrotation
				JOINT RightFoot
				{
					OFFSET -2.66027 -7.30903 0.00000
					CHANNELS 3 Zrotation Yrotation Xrotation
					JOINT RightToeBase
					{
						OFFSET -0.22981 -0.63138 2.03959
						CHANNELS 3 Zrotation Yrotation Xrotation
						End Site
						{
							OFFSET -0.00000 -0.00000 1.07060
						}
					}
				}
			}
		}
	}
	JOINT LowerBack
	{
		OFFSET 0 0 0
		CHANNELS 3 Zrotation Yrotation Xrotation
		JOINT Spine
		{
			OFFSET -0.02651 1.86275 -0.11152
			CHANNELS 3 Zrotation Yrotation Xrotation
			JOINT Spine1
			{
				OFFSET 0.01019 1.86224 0.04087
				CHANNELS 3 Zrotation Yrotation Xrotation
				JOINT Neck
				{
					OFFSET 0 0 0
					CHANNELS 3 Zrotation Yrotation Xrotation
					JOINT Neck1
					{
						OFFSET -0.01926 1.80512 0.08867
						CHANNELS 3 Zrotation Yrotation Xrotation
						JOINT Head
						{
							OFFSET 0.05516 1.76451 -0.38475
							CHANNELS 3 Zrotation Yrotation Xrotation
							End Site
							{
								OFFSET 0.01592 1.82587 -0.14001
							}
						}
					}
				}
				JOINT LeftShoulder
				{
					OFFSET 0 0 0
					CHANNELS 3 Zrotation Yrotation Xrotation
					JOINT LeftArm
					{
						OFFSET 3.47116 1.51376 0.14491
						CHANNELS 3 Zrotation Yrotation Xrotation
						JOINT LeftForeArm
						{
							OFFSET 4.78095 -0.00000 0.00000
							CHANNELS 3 Zrotation Yrotation Xrotation
							JOINT LeftHand
							{
								OFFSET 3.58615 -0.00000 -0.00000
								CHANNELS 3 Zrotation Yrotation Xrotation
								JOINT LeftFingerBase
								{
									OFFSET 0 0 0
									CHANNELS 3 Zrotation Yrotation Xrotation
									JOINT LeftHandIndex1
									{
										OFFSET 0.65981 -0.00000 0.00000
										CHANNELS 3 Zrotation Yrotation Xrotation
										End Site
										{
											OFFSET 0.53196 -0.00000 0.00000
										}
									}
								}
								JOINT LThumb
								{
									OFFSET 0 0 0
									CHANNELS 3 Zrotation Yrotation Xrotation
									End Site
									{
										OFFSET 0.54008 -0.00000 0.54008
									}
								}
							}
						}
					}
				}
				JOINT RightShoulder
				{
					OFFSET 0 0 0
					CHANNELS 3 Zrotation Yrotation Xrotation
					JOINT RightArm
					{
						OFFSET -3.31725 1.61216 0.35156
						CHANNELS 3 Zrotation Yrotation Xrotation
						JOINT RightForeArm
						{
							OFFSET -4.48913 -0.00000 0.00000
							CHANNELS 3 Zrotation Yrotation Xrotation
							JOINT RightHand
							{
								OFFSET -3.70510 -0.00000 0.00000
								CHANNELS 3 Zrotation Yrotation Xrotation
								JOINT RightFingerBase
								{
									OFFSET 0 0 0
									CHANNELS 3 Zrotation Yrotation Xrotation
									JOINT RightHandIndex1
									{
										OFFSET -0.44914 -0.00000 0.00000
										CHANNELS 3 Zrotation Yrotation Xrotation
										End Site
										{
											OFFSET -0.36211 -0.00000 0.00000
										}
									}
								}
								JOINT RThumb
								{
									OFFSET 0 0 0
									CHANNELS 3 Zrotation Yrotation Xrotation
									End Site
									{
										OFFSET -0.36763 -0.00000 0.36763
									}
								}
							}
						}
					}
				}
			}
		}
	}
}
MOTION
Frames: 8
Frame Time: .0083333
-0.9166 18.6714 5.7255 0 0 0 0 0 0 -21 0 0 0 0 0 0 0 0 0 0 0 0 0 0 21 0 0 0 0 0 0 0 0 0 0 0 0 0 0 0 0 0 0 0 0 0 0 -16 0 0 21 0 0 11 0 0 0 -8 0 0 0 0 0 0 0 0 0 0 0 0 0 0 0 0 0 0 0 0 8 0 0 0 0 0 0 0 0 0 0 0 0 0 0 0 0 0
-0.9166 18.6714 5.7255 -4.6748 -1.5406 0.4086 0.0000 0.0000 0.0000 -8.7619 -6.5629 -3.0652 1.5397 7.8332 22.2086 1.4305 2.9447 -23.8214 8.4673 -16.4524 -54.2290 0.0000 0.0000 0.0000 18.8781 -4.4870 6.8811 0.0000 -0.0000 0.0000 -0.6617 -4.1708 -17.4446 -0.0519 1.4705 -4.0443 2.1513 0.8491 6.1394 1.1088 1.3664 -1.7777 -0.2011 0.6248 -5.2694 -1.3376 -2.1040 -12.2600 2.9732 -3.4995 26.2809 0.8472 -1.3924 10.5112 -0.0000 -0.0000 0.0000 -90.6897 13.4639 26.4078 22.1891 -33.1901 -6.6891 -0.0000 -0.0000 11.8277 5.3143 -30.4054 -2.6954 -7.1250 0.0000 -0.0000 -14.8125 0.3413 15.2434 -0.0000 -0.0000 0.0000 89.8238 -18.2747 21.6890 -23.7982 34.9501 -7.5906 0.0000 0.0000 19.9138 -12.0919 -25.8756 5.3414 7.1250 -0.0000 -0.0000 18.9654 -55.3420 -4.9448
-0.9151 18.6707 5.7297 -4.6972 -1.5452 0.4217 0.0000 0.0000 0.0000 -8.7371 -6.5087 -3.1165 1.5464 7.8493 22.2573 1.4294 2.9311 -23.8062 8.4905 -16.4685 -54.3109 0.0000 0.0000 0.0000 18.8988 -4.4823 6.8813 0.0000 -0.0000 0.0000 -0.6642 -4.1564 -17.4629 -0.0504 1.4485 -3.9838 2.1926 0.8511 6.1778 1.1049 1.3735 -1.7840 -0.2297 0.6266 -5.2967 -1.3659 -2.0836 -12.2647 3.0453 -3.4850 26.3251 0.8797 -1.3795 10.5300 0.0000 0.0000 0.0000 -90.6633 13.5420 26.4979 22.1244 -33.1173 -6.6537 -0.0000 -0.0000 11.9645 5.7362 -30.5414 -2.9222 -7.1250 0.0000 -0.0000 -14.5786 0.1657 15.0317 0.0000 0.0000 0.0000 89.7991 -18.2338 21.6478 -23.7355 34.8833 -7.5547 0.0000 0.0000 20.0035 -11.6142 -25.7499 5.1025 7.1250 -0.0000 -0.0000 19.3677 -55.1306 -4.9544
-0.9137 18.6702 5.7349 -4.6762 -1.5307 0.4332 0.0000 0.0000 0.0000 -8.7600 -6.4437 -3.1568 1.5466 7.8499 22.2590 1.4131 2.9774 -23.7002 8.5431 -16.5045 -54.4961 0.0000 0.0000 0.0000 18.8725 -4.4993 6.8850 0.0000 -0.0000 0.0000 -0.6649 -4.1550 -17.4698 -0.0522 1.4743 -4.0548 2.1734 0.8452 6.1908 1.0982 1.3641 -1.7813 -0.2251 0.6224 -5.3017 -1.3482 -2.0733 -12.2742 3.0604 -3.4794 26.3456 0.8828 -1.3731 10.5393 -0.0000 -0.0000 0.0000 -90.6669 13.5997 26.5590 22.0816 -33.0691 -6.6303 -0.0000 -0.0000 11.9752 6.0693 -30.6168 -3.0997 -7.1250 0.0000 -0.0000 -14.3932 0.0570 14.8555 -0.0000 -0.0000 0.0000 89.7604 -18.2618 21.6784 -23.7740 34.9243 -7.5768 0.0000 0.0000 19.9763 -10.7729 -26.1028 4.7854 7.1250 -0.0000 -0.0000 20.4130 -55.2995 -5.3236
-0.9140 18.6704 5.7394 -4.6452 -1.4992 0.4550 0.0000 0.0000 0.0000 -8.7785 -6.3896 -3.2168 1.5477 7.8524 22.2667 1.4001 2.9699 -23.5946 8.5778 -16.5283 -54.6184 0.0000 0.0000 0.0000 18.8424 -4.5290 6.8714 0.0000 0.0000 -0.0000 -0.6630 -4.1605 -17.4520 -0.0555 1.5203 -4.1816 2.1258 0.8351 6.1761 1.0958 1.3457 -1.7633 -0.1986 0.6152 -5.2757 -1.3334 -2.0810 -12.3503 3.0284 -3.4860 26.3773 0.8673 -1.3772 10.5653 -0.0000 0.0000 0.0000 -90.6872 13.6079 26.5335 22.0562 -33.0405 -6.6165 -0.0000 -0.0000 11.9838 6.0465 -30.6786 -3.0936 -7.1250 0.0000 -0.0000 -14.4082 -0.0004 14.8868 -0.0000 0.0000 0.0000 89.7275 -18.2616 21.6887 -23.8151 34.9681 -7.6003 0.0000 0.0000 19.9245 -11.1226 -26.5631 5.0244 7.1250 -0.0000 -0.0000 20.3468 -55.7988 -5.5561
-0.9140 18.6698 5.7435 -4.6287 -1.5005 0.4716 0.0000 0.0000 0.0000 -8.7794 -6.3160 -3.2558 1.5477 7.8524 22.2668 1.3987 2.8852 -23.5431 8.5658 -16.5200 -54.5760 0.0000 0.0000 0.0000 18.8260 -4.5258 6.8646 0.0000 -0.0000 0.0000 -0.6638 -4.1546 -17.4575 -0.0584 1.5590 -4.2884 2.1040 0.8346 6.1752 1.0914 1.3425 -1.7431 -0.1904 0.6146 -5.2545 -1.3304 -2.0874 -12.4535 3.0134 -3.4939 26.4497 0.8597 -1.3803 10.6122 0.0000 -0.0000 0.0000 -90.7125 13.5860 26.4381 22.0224 -33.0023 -6.5980 -0.0000 -0.0000 12.0790 5.9321 -30.6767 -3.0346 -7.1250 0.0000 -0.0000 -14.4727 0.0139 14.9543 0.0000 -0.0000 0.0000 89.6934 -18.1950 21.6941 -23.7810 34.9318 -7.5808 0.0000 0.0000 19.9098 -12.7453 -26.5773 5.7786 7.1250 -0.0000 -0.0000 18.7266 -56.1363 -5.2452
-0.9127 18.6687 5.7484 -4.6326 -1.5265 0.4735 0.0000 0.0000 0.0000 -8.7762 -6.2931 -3.2443 1.5486 7.8547 22.2737 1.4045 2.8318 -23.5638 8.5429 -16.5044 -54.4954 0.0000 0.0000 0.0000 18.8268 -4.5040 6.8807 0.0000 -0.0000 0.0000 -0.6646 -4.1710 -17.4766 -0.0621 1.6079 -4.4233 2.0965 0.8345 6.1975 1.0867 1.3419 -1.7331 -0.1914 0.6145 -5.2568 -1.2350 -2.0812 -12.5038 2.9236 -3.4862 26.5294 0.8120 -1.3765 10.6479 0.0000 0.0000 0.0000 -90.7273 13.5932 26.3227 21.9935 -32.9697 -6.5823 -0.0000 -0.0000 12.1908 5.8846 -30.6114 -3.0043 -7.1250 0.0000 -0.0000 -14.4973 0.0822 14.9638 0.0000 0.0000 0.0000 89.6759 -18.1347 21.7129 -23.7255 34.8726 -7.5490 0.0000 0.0000 19.9044 -13.1571 -26.3609 5.9257 7.1250 -0.0000 -0.0000 18.1812 -56.0135 -5.0302
-0.9108 18.6676 5.7535 -4.6744 -1.5739 0.4523 0.0000 0.0000 0.0000 -8.7432 -6.2833 -3.1996 1.5516 7.8618 22.2952 1.4129 2.8210 -23.6248 8.5323 -16.4972 -54.4582 0.0000 0.0000 0.0000 18.8639 -4.4715 6.9319 0.0000 -0.0000 0.0000 -0.6640 -4.1894 -17.4811 -0.0634 1.6247 -4.4696 2.1221 0.8376 6.2595 1.1041 1.3511 -1.7357 -0.1897 0.6181 -5.2945 -1.1563 -2.0717 -12.4560 2.8352 -3.4677 26.5399 0.7697 -1.3712 10.6386 -0.0000 0.0000 0.0000 -90.7603 13.6309 26.2063 21.9473 -32.9174 -6.5572 -0.0000 -0.0000 12.3327 5.9185 -30.6839 -3.0282 -7.1250 0.0000 -0.0000 -14.4806 0.0084 14.9644 -0.0000 0.0000 0.0000 89.6619 -18.1227 21.7003 -23.7006 34.8460 -7.5348 0.0000 0.0000 19.9376 -11.9245 -26.0689 5.3020 7.1250 -0.0000 -0.0000 19.2465 -55.4921 -5.0933
